<svg xmlns="http://www.w3.org/2000/svg" width="129" height="43" fill="none" xmlns:v="https://vecta.io/nano"><path d="M8.274 42.046c-.333 0-.658-.004-.988-.012-.684-.009-1.367-.069-2.043-.179a6.4 6.4 0 0 1-1.81-.602 5.91 5.91 0 0 1-1.527-1.117c-.453-.447-.829-.966-1.115-1.535s-.489-1.187-.593-1.822c-.112-.681-.173-1.37-.182-2.061L0 33.714V8.321l.016-.983c.008-.69.069-1.377.181-2.058.104-.636.305-1.252.594-1.827.285-.569.66-1.088 1.109-1.537s.966-.832 1.533-1.124S4.611.301 5.239.194c.678-.111 1.363-.172 2.05-.18L8.275 0h112.306l.998.014a13.47 13.47 0 0 1 2.031.179 6.47 6.47 0 0 1 1.826.602 6.13 6.13 0 0 1 2.639 2.66c.284.571.482 1.182.585 1.813a14.42 14.42 0 0 1 .189 2.074l.004.979.009 1.2v23.005l-.009 1.182-.005 1.022c-.012.683-.075 1.364-.186 2.037a6.31 6.31 0 0 1-.591 1.836c-.288.563-.662 1.077-1.109 1.523a5.92 5.92 0 0 1-1.53 1.124c-.574.292-1.188.496-1.822.604-.676.111-1.359.171-2.043.179l-.981.012-1.184.002-111.128-.002z" fill="#000"/><path d="M26.116 21.353c.012-.917.254-1.817.704-2.615s1.094-1.468 1.871-1.949c-.494-.709-1.145-1.293-1.902-1.705a5.51 5.51 0 0 0-2.46-.667c-1.835-.194-3.614 1.104-4.549 1.104-.953 0-2.393-1.085-3.943-1.053-1.003.033-1.98.326-2.837.851a5.83 5.83 0 0 0-2.051 2.147c-2.113 3.681-.537 9.09 1.488 12.065 1.013 1.457 2.197 3.084 3.746 3.026 1.516-.063 2.082-.972 3.912-.972 1.813 0 2.344.972 3.924.936 1.627-.026 2.651-1.463 3.629-2.934a12.08 12.08 0 0 0 1.659-3.399c-.945-.402-1.751-1.075-2.319-1.935a5.28 5.28 0 0 1-.872-2.901zm-2.985-8.892c.887-1.071 1.324-2.447 1.218-3.837-1.355.143-2.607.794-3.505 1.824a5.1 5.1 0 0 0-.99 1.722c-.215.634-.303 1.304-.259 1.973.678.007 1.348-.141 1.961-.432s1.152-.719 1.576-1.25zm22.146 16.41h-5.173l-1.242 3.69h-2.191l4.9-13.65h2.276l4.899 13.65h-2.228l-1.241-3.69zm-4.637-1.703h4.1l-2.021-5.988h-.057l-2.022 5.988zm18.688.417c0 3.093-1.646 5.08-4.129 5.08a3.34 3.34 0 0 1-1.805-.421c-.55-.308-1.004-.766-1.308-1.321h-.047v4.929h-2.031V22.608h1.966v1.655h.037a3.52 3.52 0 0 1 1.334-1.317c.555-.31 1.183-.463 1.817-.442 2.511 0 4.166 1.997 4.166 5.081zm-2.087 0c0-2.015-1.035-3.34-2.614-3.34-1.552 0-2.595 1.352-2.595 3.34 0 2.005 1.044 3.348 2.595 3.348 1.579 0 2.614-1.315 2.614-3.348zm12.977 0c0 3.093-1.645 5.08-4.129 5.08a3.34 3.34 0 0 1-1.805-.421c-.551-.308-1.004-.765-1.308-1.32h-.047v4.929h-2.031V22.608h1.966v1.655h.037a3.52 3.52 0 0 1 1.334-1.317c.555-.31 1.183-.463 1.817-.442 2.511 0 4.166 1.997 4.166 5.081zm-2.087 0c0-2.015-1.035-3.34-2.615-3.34-1.552 0-2.595 1.352-2.595 3.34 0 2.005 1.044 3.348 2.595 3.348 1.579 0 2.615-1.315 2.615-3.348zm9.284 1.172C77.564 30.111 78.872 31 80.658 31c1.712 0 2.943-.889 2.943-2.11 0-1.059-.743-1.694-2.501-2.129l-1.759-.426c-2.492-.605-3.649-1.778-3.649-3.68 0-2.355 2.04-3.973 4.938-3.973 2.867 0 4.833 1.618 4.899 3.973h-2.05c-.123-1.362-1.242-2.184-2.878-2.184s-2.755.832-2.755 2.043c0 .965.715 1.533 2.464 1.968l1.495.369c2.784.662 3.941 1.787 3.941 3.784 0 2.554-2.022 4.153-5.239 4.153-3.009 0-5.041-1.562-5.173-4.031h2.079zm12.716-8.504v2.355h1.882v1.618h-1.882v5.487c0 .852.377 1.249 1.204 1.249.223-.004.446-.02.668-.047v1.608a5.55 5.55 0 0 1-1.128.094c-2.003 0-2.784-.757-2.784-2.687v-5.704H86.65v-1.618h1.439v-2.355h2.04zm2.971 7.332c0-3.131 1.833-5.099 4.693-5.099 2.869 0 4.693 1.968 4.693 5.099 0 3.14-1.815 5.099-4.693 5.099s-4.692-1.959-4.692-5.099zm7.317 0c0-2.148-.978-3.416-2.624-3.416s-2.623 1.277-2.623 3.416c0 2.157.978 3.415 2.623 3.415s2.624-1.258 2.624-3.415zm3.744-4.977h1.937v1.694h.047c.131-.529.439-.997.872-1.324s.966-.495 1.508-.474a3.11 3.11 0 0 1 .695.076v1.911a2.82 2.82 0 0 0-.912-.123c-.295-.012-.589.04-.862.153s-.519.284-.72.502-.353.476-.445.758-.123.581-.089.876v5.903h-2.031v-9.952zm14.423 7.029c-.273 1.807-2.022 3.046-4.26 3.046-2.879 0-4.665-1.94-4.665-5.052 0-3.122 1.796-5.146 4.579-5.146 2.738 0 4.459 1.891 4.459 4.909v.7h-6.988v.123a2.6 2.6 0 0 0 .134 1.082c.12.347.313.665.564.931s.557.476.896.615a2.56 2.56 0 0 0 1.068.19 2.23 2.23 0 0 0 1.373-.319 2.25 2.25 0 0 0 .911-1.081h1.929zm-6.865-2.97h4.946a2.4 2.4 0 0 0-.146-.968 2.39 2.39 0 0 0-.519-.828 2.38 2.38 0 0 0-.805-.55c-.303-.126-.629-.187-.957-.18a2.49 2.49 0 0 0-.964.188c-.306.126-.585.312-.819.547s-.42.514-.546.821a2.52 2.52 0 0 0-.19.97zM40.385 8.636a2.87 2.87 0 0 1 1.251.189c.398.155.757.398 1.05.71s.515.685.647 1.093.174.841.12 1.267c0 2.095-1.126 3.3-3.068 3.3H38.03V8.636h2.355zm-1.343 5.631h1.229a2.04 2.04 0 0 0 .891-.147 2.05 2.05 0 0 0 .742-.518c.206-.226.359-.495.449-.788s.113-.603.068-.906a2.08 2.08 0 0 0-.075-.901 2.07 2.07 0 0 0-.45-.782c-.206-.224-.458-.4-.739-.514s-.584-.165-.886-.148h-1.229v4.704zm5.555-1.549c-.031-.325.006-.653.109-.963s.268-.595.487-.837a2.33 2.33 0 0 1 .782-.567 2.32 2.32 0 0 1 1.886 0 2.33 2.33 0 0 1 .782.567c.219.242.384.527.487.837s.14.638.109.963a2.36 2.36 0 0 1-.107.965c-.102.311-.268.596-.486.839a2.33 2.33 0 0 1-.782.569 2.32 2.32 0 0 1-1.889 0 2.33 2.33 0 0 1-.782-.569c-.219-.242-.384-.528-.486-.839a2.36 2.36 0 0 1-.107-.965zm3.642 0c0-1.073-.479-1.7-1.32-1.7s-1.319.628-1.319 1.7c0 1.082.475 1.704 1.319 1.704s1.32-.627 1.32-1.704zm7.168 2.477H54.4l-1.017-3.645h-.077l-1.013 3.646h-.998l-1.356-4.95h.985l.882 3.777h.072l1.012-3.777h.932l1.012 3.777h.077l.877-3.777h.971l-1.351 4.95zm2.492-4.95h.935v.786h.073a1.48 1.48 0 0 1 .594-.677c.263-.158.569-.23.874-.205a1.59 1.59 0 0 1 .703.106 1.6 1.6 0 0 1 .588.402c.164.177.285.388.357.619a1.62 1.62 0 0 1 .055.713v3.204h-.971v-2.959c0-.795-.344-1.191-1.062-1.191-.163-.008-.325.02-.476.082a1.13 1.13 0 0 0-.398.274c-.112.119-.196.261-.248.416a1.14 1.14 0 0 0-.053.482v2.896H57.9v-4.95zm5.727-1.932h.971v6.882h-.971V8.312zm2.321 4.405c-.031-.325.006-.653.109-.964a2.35 2.35 0 0 1 .487-.837c.219-.242.485-.435.782-.567a2.32 2.32 0 0 1 1.887 0 2.33 2.33 0 0 1 .782.567 2.35 2.35 0 0 1 .487.837 2.36 2.36 0 0 1 .109.964 2.36 2.36 0 0 1-.108.965 2.35 2.35 0 0 1-.487.838c-.219.242-.485.436-.782.568a2.32 2.32 0 0 1-1.889 0c-.297-.133-.564-.326-.782-.568a2.35 2.35 0 0 1-.487-.838c-.102-.31-.139-.639-.108-.965zm3.642 0c0-1.073-.479-1.7-1.32-1.7s-1.319.628-1.319 1.7c0 1.082.475 1.704 1.319 1.704s1.32-.627 1.32-1.704zm2.022 1.077c0-.891.659-1.405 1.83-1.478l1.333-.077v-.427c0-.523-.344-.818-1.007-.818-.542 0-.918.2-1.026.55h-.94c.099-.85.894-1.396 2.011-1.396 1.234 0 1.929.618 1.929 1.663v3.382h-.935v-.696h-.077a1.66 1.66 0 0 1-.635.589c-.26.137-.551.201-.843.188-.207.022-.415 0-.613-.065s-.379-.17-.534-.309-.278-.31-.363-.501a1.5 1.5 0 0 1-.13-.606zm3.163-.423v-.414l-1.202.077c-.678.046-.985.278-.985.714 0 .445.384.705.912.705.155.016.311 0 .46-.046a1.16 1.16 0 0 0 .405-.223 1.17 1.17 0 0 0 .409-.813zm2.243-.654c0-1.564.799-2.555 2.043-2.555.307-.014.613.06.88.214s.486.381.629.655h.073V8.312h.971v6.882h-.931v-.782h-.077a1.71 1.71 0 0 1-.653.649 1.7 1.7 0 0 1-.892.215c-1.252 0-2.043-.991-2.043-2.559zm1.003 0c0 1.05.492 1.682 1.315 1.682s1.325-.641 1.325-1.678c0-1.031-.511-1.681-1.325-1.681s-1.315.636-1.315 1.677zm7.61 0a2.36 2.36 0 0 1 .108-.963 2.35 2.35 0 0 1 .487-.837 2.33 2.33 0 0 1 .782-.567 2.32 2.32 0 0 1 1.886 0 2.33 2.33 0 0 1 .782.567c.219.242.384.527.487.837a2.36 2.36 0 0 1 .109.963 2.36 2.36 0 0 1-.107.965 2.35 2.35 0 0 1-.486.839 2.33 2.33 0 0 1-.783.569 2.32 2.32 0 0 1-1.889 0 2.33 2.33 0 0 1-.782-.569c-.219-.242-.384-.528-.487-.839s-.139-.639-.107-.965zm3.642 0c0-1.073-.479-1.7-1.32-1.7s-1.319.628-1.319 1.7c0 1.082.475 1.704 1.319 1.704s1.32-.627 1.32-1.704zm2.302-2.473h.935v.786h.073a1.48 1.48 0 0 1 .594-.677c.263-.158.569-.23.874-.205a1.59 1.59 0 0 1 .703.106 1.6 1.6 0 0 1 .588.402c.164.177.285.388.357.619a1.62 1.62 0 0 1 .055.713v3.204h-.971v-2.959c0-.795-.344-1.191-1.062-1.191-.163-.008-.325.02-.476.082a1.13 1.13 0 0 0-.398.274c-.112.119-.196.261-.248.416a1.14 1.14 0 0 0-.053.482v2.896h-.971v-4.95zm9.667-1.232v1.255h1.066v.823h-1.066v2.545c0 .518.212.746.696.746a3.22 3.22 0 0 0 .37-.023v.814c-.174.031-.351.048-.528.05-1.08 0-1.51-.382-1.51-1.336V11.09h-.781v-.823h.781V9.013h.972zm2.393-.7h.962v2.728h.077c.129-.285.343-.523.611-.682a1.51 1.51 0 0 1 .89-.205 1.61 1.61 0 0 1 .697.117c.221.09.42.228.581.405s.283.386.355.615.093.471.061.709v3.196h-.972V12.24c0-.791-.366-1.191-1.052-1.191a1.14 1.14 0 0 0-.492.068 1.15 1.15 0 0 0-.418.27 1.16 1.16 0 0 0-.329.917v2.891h-.971V8.312zm9.897 5.546a2.01 2.01 0 0 1-.808 1.105c-.39.262-.858.377-1.324.327-.325.009-.647-.054-.945-.183a2.24 2.24 0 0 1-.78-.565 2.26 2.26 0 0 1-.472-.843c-.095-.312-.121-.641-.077-.964-.043-.324-.016-.654.078-.967s.255-.602.47-.847a2.27 2.27 0 0 1 .777-.574 2.26 2.26 0 0 1 .944-.198c1.369 0 2.196.941 2.196 2.495v.341h-3.475v.055a1.32 1.32 0 0 0 .066.537c.059.172.154.33.277.464s.273.24.44.312a1.29 1.29 0 0 0 .527.106 1.17 1.17 0 0 0 .676-.121 1.18 1.18 0 0 0 .495-.479h.935zm-3.416-1.595h2.485a1.2 1.2 0 0 0-.066-.49c-.055-.157-.143-.3-.257-.421s-.252-.216-.405-.28a1.18 1.18 0 0 0-.483-.091c-.168-.002-.335.029-.49.093a1.26 1.26 0 0 0-.416.278c-.119.12-.212.262-.276.418a1.28 1.28 0 0 0-.092.493z" fill="#fff"/></svg>