<svg xmlns="http://www.w3.org/2000/svg" width="18" height="18" fill="#FFF" xmlns:v="https://vecta.io/nano"><path d="M10.41 9l6.3-6.29c.188-.188.294-.444.294-.71s-.106-.522-.294-.71-.444-.294-.71-.294-.522.106-.71.294L9 7.59l-6.29-6.3C2.522 1.102 2.266.996 2 .996s-.522.106-.71.294-.294.444-.294.71.106.522.294.71L7.59 9l-6.3 6.29a1 1 0 0 0-.296.71 1 1 0 0 0 .296.71 1 1 0 0 0 .71.296 1 1 0 0 0 .71-.296L9 10.41l6.29 6.3a1 1 0 0 0 .71.296 1 1 0 0 0 .71-.296 1 1 0 0 0 .296-.71 1 1 0 0 0-.296-.71L10.41 9z"/></svg>