<svg xmlns="http://www.w3.org/2000/svg" width="32" height="32" fill="none" xmlns:v="https://vecta.io/nano"><path opacity=".4" d="M15.999 29.331c-1.025 0-2.049-.389-2.832-1.167l-.973-.973c-.377-.376-.883-.584-1.419-.585H9.405a4.02 4.02 0 0 1-4.015-4.015V21.22a2.01 2.01 0 0 0-.587-1.42l-.957-.956a4.02 4.02 0 0 1-.015-5.676l.973-.975c.376-.377.584-.883.585-1.419V9.407a4.02 4.02 0 0 1 4.015-4.016h1.371c.535 0 1.039-.208 1.419-.588l.959-.956a4.02 4.02 0 0 1 5.676-.015l.973.973c.379.377.883.585 1.417.585h1.371a4.02 4.02 0 0 1 4.015 4.016v1.369a2.01 2.01 0 0 0 .587 1.42l.957.957a3.99 3.99 0 0 1 1.183 2.833 3.99 3.99 0 0 1-1.156 2.829l-.039.04-.947.947c-.376.377-.584.883-.585 1.419v1.369a4.02 4.02 0 0 1-4.015 4.015H21.22c-.535.001-1.04.209-1.419.587l-.959.957a4 4 0 0 1-2.844 1.181" fill="#393939"/><path fill-rule="evenodd" d="M13.39 13.401a1.14 1.14 0 0 1-.821.339c-.296 0-.587-.121-.82-.34-.221-.22-.347-.521-.347-.827a1.22 1.22 0 0 1 .339-.82c.119-.12.26-.211.401-.259.403-.184.937-.076 1.255.257.113.113.2.237.257.367a1.11 1.11 0 0 1 .095.455 1.12 1.12 0 0 1-.359.828zm6.864-1.655a1.17 1.17 0 0 0-1.649 0L11.751 18.6a1.17 1.17 0 0 0 0 1.651 1.16 1.16 0 0 0 .825.341c.312 0 .604-.121.824-.341l6.853-6.853a1.17 1.17 0 0 0 0-1.651zm-.38 6.606a1.18 1.18 0 0 0-1.285.259c-.071.083-.171.211-.239.361-.072.163-.081.337-.081.455s.009.291.081.453c.067.149.147.271.252.376.241.224.521.337.833.337.296 0 .587-.12.825-.343.212-.212.328-.505.328-.824s-.116-.612-.329-.825c-.117-.116-.259-.207-.385-.249z" fill="#00f6ff"/></svg>