<svg xmlns="http://www.w3.org/2000/svg" xmlns:xlink="http://www.w3.org/1999/xlink" width="145" height="44" fill="none" xmlns:v="https://vecta.io/nano"><path d="M138.829 43.037H5.34c-2.937 0-5.34-2.421-5.34-5.38V5.38C0 2.421 2.403 0 5.34 0h133.489c2.937 0 5.34 2.421 5.34 5.38v32.278c0 2.959-2.403 5.38-5.34 5.38" fill="#000"/><g fill="#fff"><path d="M50.637 11.021c0 .901-.265 1.619-.796 2.155-.603.637-1.388.955-2.354.955a3.21 3.21 0 0 1-2.358-.969c-.648-.646-.971-1.447-.971-2.403s.323-1.757.971-2.403a3.21 3.21 0 0 1 2.358-.969c.459 0 .898.09 1.315.271s.752.421 1.002.721l-.563.568c-.424-.511-1.008-.766-1.754-.766-.674 0-1.258.239-1.75.717s-.738 1.099-.738 1.862.246 1.383.738 1.862 1.075.717 1.75.717c.716 0 1.312-.24 1.79-.721.31-.313.489-.748.537-1.308h-2.327v-.775h3.105c.03.169.045.33.045.487"/><path d="M50.636 11.021h-.107c-.001.881-.256 1.565-.764 2.079l-.001.001-.001.001c-.584.615-1.334.921-2.277.922-.9-.001-1.654-.311-2.283-.938s-.938-1.395-.939-2.327.312-1.698.939-2.326 1.383-.937 2.283-.939a3.18 3.18 0 0 1 1.273.262 2.54 2.54 0 0 1 .962.692l.082-.069-.075-.076-.563.568.075.076.082-.069c-.444-.536-1.067-.806-1.836-.804-.7-.001-1.315.251-1.824.747s-.772 1.153-.771 1.939.257 1.442.771 1.939 1.124.748 1.824.747c.739.001 1.369-.251 1.865-.752.331-.335.519-.798.568-1.374l.01-.117h-2.337v-.56h2.998v-.108l-.105.019a2.65 2.65 0 0 1 .043.468h.214c0-.164-.015-.332-.046-.506l-.016-.088H47.38v.991h2.434v-.107l-.106-.009c-.047.541-.218.949-.506 1.241-.459.461-1.022.688-1.714.689-.649-.001-1.2-.226-1.676-.686s-.705-1.044-.706-1.785.235-1.326.706-1.785 1.026-.685 1.676-.686c.722.002 1.267.242 1.672.728l.075.09.645-.651.069-.07-.063-.075c-.262-.315-.612-.565-1.042-.751a3.39 3.39 0 0 0-1.358-.28 3.32 3.32 0 0 0-2.433 1.001c-.667.664-1.003 1.499-1.002 2.479s.335 1.815 1.003 2.48 1.483 1.001 2.433 1c.989.001 1.809-.33 2.431-.989l-.077-.074.075.076c.553-.557.828-1.309.827-2.231h-.107 0zm4.922-2.697H52.64v2.047h2.631v.776H52.64v2.047h2.918v.793h-3.741V7.532h3.741v.793"/><path d="M55.56 8.324v-.108h-3.025v2.262h2.631v.56h-2.632v2.262h2.918v.578h-3.527v-6.24h3.527v.685h.107v-.108.108h.107v-.901h-3.954v6.671h3.954v-1.008h-2.918v-1.832h2.632v-.991h-2.632V8.432h2.918v-.108h-.107 0zm3.472 5.663h-.824V8.324h-1.79v-.793h4.403v.793h-1.79v5.663"/><path d="M59.032 13.987v-.108h-.717V8.217h-1.79v-.578h4.19v.578h-1.79v5.77h.107v-.108.108h.107V8.432h1.79V7.424h-4.617v1.008h1.79v5.663h1.038v-.108h-.107 0zm4.975 0V7.531h.823v6.456h-.823"/><path d="M64.011 13.987h.107V7.639h.609v6.24h-.716v.108h.107-.107v.108h.93V7.424h-1.037v6.671h.107v-.108h0zm4.475 0h-.824V8.324h-1.79v-.793h4.403v.793h-1.79v5.663"/><path d="M68.484 13.987v-.108h-.717V8.217h-1.79v-.578h4.189v.578h-1.79v5.77h.107v-.108.108h.107V8.432h1.79V7.424h-4.617v1.008h1.79v5.662h1.037v-.108h-.107 0zm6.035-1.375c.474.484 1.055.725 1.741.725a2.34 2.34 0 0 0 1.74-.725c.475-.484.712-1.102.712-1.853S78.475 9.39 78 8.906a2.34 2.34 0 0 0-1.74-.725c-.686 0-1.266.242-1.741.725s-.711 1.102-.711 1.853.238 1.369.711 1.853zm4.09.54a3.13 3.13 0 0 1-2.349.978c-.937 0-1.72-.326-2.349-.978a3.31 3.31 0 0 1-.944-2.394c0-.944.314-1.742.944-2.394s1.412-.979 2.349-.979c.931 0 1.712.328 2.345.983s.948 1.452.948 2.389c0 .944-.316 1.742-.944 2.394z"/><path d="M74.516 12.612l-.076.076a2.45 2.45 0 0 0 1.817.757 2.45 2.45 0 0 0 1.816-.757c.495-.504.744-1.155.743-1.929s-.248-1.425-.743-1.929a2.45 2.45 0 0 0-1.816-.757 2.45 2.45 0 0 0-1.817.757c-.494.504-.743 1.155-.742 1.929s.248 1.425.742 1.929l.076-.076.076-.076c-.453-.464-.68-1.049-.68-1.777s.227-1.313.68-1.777 1.003-.692 1.665-.693 1.209.229 1.665.693.68 1.049.681 1.777-.227 1.313-.681 1.777-1.003.692-1.665.693-1.208-.229-1.665-.693l-.076.076zm4.09.54l-.076-.075c-.612.632-1.361.944-2.273.946s-1.661-.313-2.272-.946l-.003-.003.003.003c-.611-.634-.913-1.399-.913-2.319s.302-1.684.913-2.319 1.36-.945 2.272-.946c.906.001 1.653.315 2.269.951s.916 1.401.918 2.314a3.21 3.21 0 0 1-.914 2.319l.076.075.077.075c.647-.67.975-1.501.974-2.468.001-.962-.328-1.791-.978-2.464s-1.466-1.017-2.422-1.016-1.779.339-2.425 1.012h0c-.649.67-.975 1.501-.974 2.469s.325 1.798.974 2.469l.003.003-.003-.003c.647.673 1.464 1.012 2.425 1.011a3.24 3.24 0 0 0 2.426-1.011l-.077-.075h0zm2.1.834V7.531h1.002l3.114 5.022h.036l-.036-1.244V7.531h.824v6.456h-.859l-3.258-5.265h-.035l.035 1.245v4.021h-.823"/><path d="M80.71 13.987h.107V7.639h.836l3.114 5.022h.204l-.038-1.353V7.639h.61v6.24h-.693l-3.258-5.265h-.204l.038 1.354v3.912h-.716v.108h.107-.107v.108h.929v-4.13l-.035-1.246-.107.003v.108h.035v-.108l-.091.057 3.289 5.316h1.025V7.424H84.72v3.887l.035 1.246.107-.003v-.108h-.035v.108l.091-.057-3.145-5.072h-1.168v6.671h.107v-.108h0zm33.491 18.291h1.992v-13.45h-1.992v13.45zm17.948-8.605l-2.284 5.832h-.069l-2.37-5.832h-2.147l3.555 8.151-2.027 4.534h2.08l5.478-12.684h-2.216zm-11.301 7.078c-.653 0-1.563-.329-1.563-1.142 0-1.038 1.134-1.436 2.112-1.436.877 0 1.288.19 1.821.45-.155 1.246-1.219 2.128-2.37 2.128h0zm.241-7.372c-1.443 0-2.937.64-3.555 2.059l1.768.744c.378-.744 1.082-.986 1.821-.986 1.03 0 2.078.623 2.095 1.731v.138c-.361-.208-1.133-.519-2.078-.519-1.906 0-3.848 1.055-3.848 3.028 0 1.8 1.564 2.959 3.315 2.959 1.34 0 2.078-.606 2.543-1.315h.068v1.038h1.923v-5.157c0-2.388-1.768-3.72-4.052-3.72h0zm-12.316 1.931h-2.834V20.7h2.834c1.49 0 2.336 1.243 2.336 2.305 0 1.042-.846 2.305-2.336 2.305zm-.051-6.482h-4.774v13.45h1.991v-5.096h2.783c2.209 0 4.38-1.611 4.38-4.177s-2.171-4.177-4.38-4.177h0zM82.685 30.753c-1.377 0-2.529-1.161-2.529-2.756 0-1.612 1.153-2.791 2.529-2.791 1.359 0 2.426 1.179 2.426 2.791 0 1.595-1.067 2.756-2.426 2.756h0zm2.288-6.327h-.069c-.447-.537-1.308-1.023-2.392-1.023-2.271 0-4.353 2.011-4.353 4.593 0 2.565 2.082 4.559 4.353 4.559 1.084 0 1.944-.486 2.392-1.04h.069v.659c0 1.751-.929 2.687-2.426 2.687-1.222 0-1.979-.884-2.288-1.63l-1.737.728c.499 1.213 1.824 2.704 4.026 2.704 2.34 0 4.318-1.387 4.318-4.767v-8.216h-1.893v.745zm3.269 7.852h1.996V18.827h-1.996v13.451zm4.938-4.437c-.052-1.768 1.359-2.669 2.374-2.669.792 0 1.463.398 1.686.971l-4.06 1.698zm6.194-1.525c-.378-1.023-1.531-2.912-3.888-2.912-2.34 0-4.284 1.855-4.284 4.576 0 2.566 1.927 4.576 4.507 4.576 2.082 0 3.287-1.283 3.785-2.028l-1.549-1.04c-.516.763-1.222 1.266-2.237 1.266s-1.737-.468-2.202-1.387l6.073-2.531-.206-.52zm-48.385-1.508v1.941h4.611c-.138 1.092-.499 1.889-1.05 2.444-.671.676-1.72 1.421-3.561 1.421-2.839 0-5.058-2.305-5.058-5.165s2.219-5.166 5.058-5.166c1.531 0 2.649.607 3.475 1.387l1.359-1.369c-1.153-1.11-2.684-1.959-4.834-1.959-3.888 0-7.157 3.189-7.157 7.107s3.269 7.107 7.157 7.107c2.099 0 3.682-.693 4.92-1.993 1.273-1.283 1.669-3.085 1.669-4.541 0-.451-.034-.867-.103-1.213h-6.486zm11.831 5.945c-1.377 0-2.564-1.144-2.564-2.774 0-1.647 1.187-2.773 2.564-2.773s2.563 1.127 2.563 2.773c0 1.63-1.187 2.774-2.563 2.774zm0-7.35a4.49 4.49 0 0 0-4.56 4.576 4.5 4.5 0 0 0 4.56 4.576 4.5 4.5 0 0 0 4.559-4.576 4.49 4.49 0 0 0-4.559-4.576zm9.946 7.35c-1.376 0-2.563-1.144-2.563-2.774 0-1.647 1.187-2.773 2.563-2.773s2.563 1.127 2.563 2.773c0 1.63-1.187 2.774-2.563 2.774h0zm0-7.35a4.49 4.49 0 0 0-4.559 4.576 4.5 4.5 0 0 0 4.559 4.576 4.5 4.5 0 0 0 4.559-4.576 4.49 4.49 0 0 0-4.559-4.576h0z"/></g><path d="M13.441 11.268c-.276.25-.441.667-.441 1.221v-.125 18.269-.12c0 .511.141.906.381 1.16l.061.059h0c.194.175.442.269.727.268.278 0 .591-.089.922-.277l11.944-6.811 4.103-2.34c.521-.297.814-.68.863-1.071V21.5c-.049-.391-.341-.774-.862-1.071l-4.103-2.34-11.944-6.811c-.331-.188-.644-.278-.923-.278-.285 0-.533.093-.726.268h0z" fill="#00c1ff"/><path d="M13.416 32l-.057-.06c-.225-.261-.358-.666-.358-1.191v.123-18.743.124c0-.568.155-.996.415-1.253L23 21.5 13.416 32z" fill="url(#A)"/><path d="M26.657 25L23 21.5l3.657-3.5 4.415 2.4c.561.305.875.698.928 1.099v.002c-.053.4-.367.794-.928 1.098L26.657 25" fill="url(#B)"/><path d="M13.749 32a1.14 1.14 0 0 1-.749-.256h0L23.499 22 27 25.249l-12.302 6.487c-.34.179-.663.264-.95.264z" fill="url(#C)"/><path d="M23.5 22L13 11.281c.2-.184.455-.281.748-.281.287 0 .61.094.951.291L27 18.426 23.5 22" fill="url(#D)"/><path d="M13.804 32a1.11 1.11 0 0 1-.742-.261h0l-.057-.053.057-.065c.198.17.451.261.741.261.284 0 .603-.086.94-.269L26.922 25l.078.075-.079.043-12.177 6.613c-.307.166-.599.253-.863.268l-.077.002" fill="url(#E)"/><path d="M27.077 25L27 24.934l4.131-2.013c.525-.255.819-.585.869-.921 0 .123-.032.247-.096.366-.128.242-.386.47-.773.659L27.077 25" fill="url(#F)"/><path d="M32 22c-.049-.449-.344-.888-.868-1.229L27 18.088l.077-.088h0l4.054 2.633c.578.376.868.871.868 1.367" fill="url(#G)"/><path d="M26.922 18l-12.178-6.613c-.338-.183-.657-.27-.942-.27a1.11 1.11 0 0 0-.741.26L13 11.319l.06-.056a1.11 1.11 0 0 1 .736-.262h.006c.284 0 .604.087.942.27L27 17.925h0l-.078.075" fill="url(#H)"/><defs><linearGradient id="A" x1="19.126" y1="11.931" x2="10.126" y2="20.173" xlink:href="#I"><stop stop-color="#00a0ff"/><stop offset=".007" stop-color="#00a1ff"/><stop offset=".26" stop-color="#00beff"/><stop offset=".512" stop-color="#00d2ff"/><stop offset=".76" stop-color="#00dfff"/><stop offset="1" stop-color="#00e3ff"/></linearGradient><linearGradient id="B" x1="32.683" y1="21.439" x2="11.258" y2="21.439" xlink:href="#I"><stop stop-color="#ffe000"/><stop offset=".409" stop-color="#ffbd00"/><stop offset=".775" stop-color="orange"/><stop offset="1" stop-color="#ff9c00"/></linearGradient><linearGradient id="C" x1="25.142" y1="25.089" x2="10.969" y2="40.298" xlink:href="#I"><stop stop-color="#ff3a44"/><stop offset="1" stop-color="#c31162"/></linearGradient><linearGradient id="D" x1="10.294" y1="9.692" x2="17.257" y2="16.495" xlink:href="#I"><stop stop-color="#32a071"/><stop offset=".069" stop-color="#2da771"/><stop offset=".476" stop-color="#15cf74"/><stop offset=".801" stop-color="#06e775"/><stop offset="1" stop-color="#00f076"/></linearGradient><linearGradient id="E" x1="25.075" y1="27.135" x2="13.487" y2="39.298" xlink:href="#I"><stop stop-color="#cc2e36"/><stop offset="1" stop-color="#9c0e4e"/></linearGradient><linearGradient id="F" x1="32.639" y1="21.999" x2="12.589" y2="21.999" xlink:href="#I"><stop stop-color="#e0c500"/><stop offset=".409" stop-color="#e0a600"/><stop offset=".775" stop-color="#e09100"/><stop offset="1" stop-color="#e08900"/></linearGradient><linearGradient id="G" x1="32.639" y1="22.001" x2="12.59" y2="22.001" xlink:href="#I"><stop stop-color="#ffe840"/><stop offset=".409" stop-color="#ffce40"/><stop offset=".775" stop-color="#ffbc40"/><stop offset="1" stop-color="#ffb540"/></linearGradient><linearGradient id="H" x1="10.367" y1="12.006" x2="15.541" y2="17.437" xlink:href="#I"><stop stop-color="#65b895"/><stop offset=".069" stop-color="#62bd95"/><stop offset=".476" stop-color="#50db97"/><stop offset=".801" stop-color="#44ed98"/><stop offset="1" stop-color="#40f498"/></linearGradient><linearGradient id="I" gradientUnits="userSpaceOnUse"/></defs></svg>