<svg xmlns="http://www.w3.org/2000/svg" width="21" height="21" fill="#fff" xmlns:v="https://vecta.io/nano"><path d="M20.947 6.174c-.049-1.116-.23-1.883-.488-2.548-.267-.706-.677-1.337-1.215-1.862a5.17 5.17 0 0 0-1.859-1.21c-.669-.258-1.432-.439-2.548-.488L10.504 0 6.175.062C5.059.111 4.292.291 3.627.55c-.706.267-1.338.677-1.863 1.214a5.17 5.17 0 0 0-1.21 1.858C.295 4.291.115 5.054.066 6.17L0 10.502.062 14.83c.049 1.116.23 1.883.488 2.548a5.18 5.18 0 0 0 1.214 1.862c.525.533 1.161.948 1.859 1.21.669.259 1.432.439 2.548.488L10.5 21l4.329-.061c1.116-.049 1.883-.23 2.548-.488a5.37 5.37 0 0 0 3.073-3.073c.258-.669.439-1.432.488-2.548L21 10.502l-.053-4.328zm-1.891 8.574c-.045 1.026-.217 1.58-.361 1.949-.353.915-1.079 1.641-1.994 1.994-.369.144-.927.316-1.949.361l-4.243.061c-2.803 0-3.139-.012-4.243-.061-1.026-.045-1.58-.217-1.949-.361-.455-.168-.87-.435-1.206-.784-.349-.341-.615-.751-.784-1.206-.144-.369-.316-.927-.361-1.949l-.062-4.242.062-4.242c.045-1.026.217-1.579.361-1.949a3.19 3.19 0 0 1 .788-1.206 3.26 3.26 0 0 1 1.206-.783c.369-.144.927-.316 1.949-.361l4.243-.062 4.243.062c1.026.045 1.58.217 1.949.361a3.23 3.23 0 0 1 1.206.783c.349.341.616.751.784 1.206.144.369.316.927.361 1.949l.062 4.242-.062 4.238z"/><path d="M10.5 6a4.5 4.5 0 1 0 0 9 4.5 4.5 0 1 0 0-9zm0 7.419A2.92 2.92 0 0 1 7.581 10.5 2.92 2.92 0 0 1 10.5 7.581a2.92 2.92 0 0 1 2.919 2.919 2.92 2.92 0 0 1-2.919 2.919zM18 5.5a1.5 1.5 0 1 1-3 0 1.5 1.5 0 1 1 3 0z"/></svg>