<svg xmlns="http://www.w3.org/2000/svg" width="21" height="21" fill="none" xmlns:v="https://vecta.io/nano"><path d="M19.486 0H1.515C.678 0 0 .678 0 1.515v17.971C0 20.322.678 21 1.515 21h17.971c.837 0 1.515-.678 1.515-1.515V1.515C21 .678 20.322 0 19.486 0h0zM7.449 15.873H4.892V8.18h2.557v7.693zM6.17 7.129h-.017c-.858 0-1.413-.591-1.413-1.329 0-.755.572-1.329 1.447-1.329S7.6 5.045 7.617 5.8c0 .738-.555 1.329-1.447 1.329zm10.499 8.744h-2.557v-4.116c0-1.034-.37-1.74-1.296-1.74-.706 0-1.127.476-1.312.935-.068.164-.084.394-.084.624v4.296H8.864V8.18h2.557v1.089c.34-.524.948-1.27 2.305-1.27 1.682 0 2.944 1.1 2.944 3.463v4.411z" fill="#fff"/></svg>