<svg xmlns="http://www.w3.org/2000/svg" width="266" height="73" fill="none" xmlns:v="https://vecta.io/nano"><path d="M107.487 29.26v28.647h-5.762V45.45H89.471v12.457h-5.721V29.26h5.721v11.605h12.254V29.26h5.762zm15.576 5.884c2.192 0 4.153.46 5.884 1.38 1.758.92 3.138 2.259 4.139 4.017 1.001 1.731 1.501 3.774 1.501 6.127s-.5 4.396-1.501 6.127-2.381 3.07-4.139 4.017c-1.731.92-3.692 1.38-5.884 1.38s-4.165-.46-5.924-1.38c-1.731-.947-3.097-2.286-4.098-4.017s-1.501-3.774-1.501-6.127.5-4.396 1.501-6.127c1.001-1.758 2.367-3.097 4.098-4.017 1.759-.92 3.733-1.38 5.924-1.38zm0 4.95a5.45 5.45 0 0 0-4.057 1.704c-1.109 1.109-1.664 2.732-1.664 4.869s.555 3.774 1.664 4.91c1.109 1.109 2.461 1.664 4.057 1.664s2.949-.555 4.058-1.664c1.109-1.136 1.664-2.773 1.664-4.91s-.555-3.76-1.664-4.869c-1.109-1.136-2.462-1.704-4.058-1.704zm25.955-4.95c2.191 0 4.152.46 5.883 1.38 1.759.92 3.138 2.259 4.139 4.017 1.001 1.731 1.502 3.774 1.502 6.127s-.501 4.396-1.502 6.127a10.37 10.37 0 0 1-4.139 4.017c-1.731.92-3.692 1.38-5.883 1.38s-4.166-.46-5.924-1.38a10.44 10.44 0 0 1-4.098-4.017c-1.001-1.731-1.502-3.774-1.502-6.127s.501-4.396 1.502-6.127c1-1.758 2.367-3.097 4.098-4.017 1.758-.92 3.733-1.38 5.924-1.38zm0 4.95c-1.596 0-2.949.568-4.058 1.704-1.109 1.109-1.663 2.732-1.663 4.869s.554 3.774 1.663 4.91c1.109 1.109 2.462 1.664 4.058 1.664a5.52 5.52 0 0 0 4.058-1.664c1.109-1.136 1.663-2.773 1.663-4.91s-.554-3.76-1.663-4.869c-1.11-1.136-2.462-1.704-4.058-1.704z" fill="#fff"/><path d="M180.572 43.137c1.731.352 3.111 1.177 4.139 2.475 1.055 1.271 1.582 2.773 1.582 4.504 0 2.407-.811 4.315-2.434 5.721-1.596 1.38-3.923 2.069-6.979 2.069h-12.295V29.26h12.051c2.895 0 5.113.636 6.655 1.907 1.569 1.271 2.353 3.057 2.353 5.356 0 1.785-.473 3.246-1.42 4.382-.92 1.136-2.137 1.88-3.652 2.232zm-10.266-1.867h5.153c1.434 0 2.516-.311 3.247-.933.757-.649 1.136-1.569 1.136-2.759s-.366-2.11-1.096-2.759-1.853-.974-3.368-.974h-5.072v7.426zm5.437 11.97c1.515 0 2.678-.325 3.49-.974.812-.676 1.217-1.65 1.217-2.921s-.419-2.245-1.258-2.921c-.811-.703-1.974-1.055-3.489-1.055h-5.397v7.872h5.437zm23.364-18.097c1.893 0 3.516.446 4.869 1.339s2.313 2.096 2.881 3.611v-4.666h5.681v22.479h-5.681V53.2c-.568 1.515-1.528 2.732-2.881 3.652-1.353.893-2.976 1.339-4.869 1.339s-3.598-.46-5.113-1.38-2.705-2.245-3.571-3.977c-.838-1.758-1.257-3.814-1.257-6.168s.419-4.396 1.257-6.127c.866-1.758 2.056-3.097 3.571-4.017s3.219-1.38 5.113-1.38zm1.785 4.991c-1.785 0-3.219.582-4.301 1.745s-1.623 2.759-1.623 4.788.541 3.625 1.623 4.788c1.082 1.136 2.516 1.704 4.301 1.704 1.731 0 3.152-.582 4.261-1.745 1.136-1.19 1.704-2.773 1.704-4.747 0-2.002-.568-3.584-1.704-4.747-1.109-1.19-2.53-1.785-4.261-1.785zm30.221-5.031c2.596 0 4.666.852 6.208 2.556s2.313 4.098 2.313 7.182v13.066h-5.681V45.49c0-1.785-.46-3.165-1.38-4.139-.919-1.001-2.177-1.501-3.773-1.501-1.623 0-2.922.528-3.896 1.583s-1.46 2.57-1.46 4.544v11.929h-5.722V35.428h5.722v4.504c.595-1.515 1.569-2.691 2.921-3.53 1.38-.866 2.962-1.298 4.748-1.298zm26.701 22.804l-7.425-9.819v9.819h-5.721V27.88h5.721v16.88l7.385-9.332h6.776l-9.454 11.199 9.697 11.28h-6.979z" fill="#5ce1e6"/><path d="M36.068 0A36.07 36.07 0 0 0 2.746 22.265 36.07 36.07 0 0 0 .693 43.104a36.07 36.07 0 0 0 28.338 28.338 36.07 36.07 0 0 0 37.026-15.337 36.07 36.07 0 0 0 6.078-20.038H54.102c0 3.567-1.058 7.053-3.039 10.019s-4.798 5.277-8.093 6.642-6.921 1.722-10.419 1.026-6.712-2.413-9.234-4.936-4.24-5.735-4.935-9.234-.339-7.124 1.026-10.419 3.676-6.112 6.642-8.093 6.452-3.039 10.019-3.039V0z" fill="#fff"/><g fill="#5ce1e6"><path d="M36.068 0a36.07 36.07 0 0 0-25.504 10.564 36.07 36.07 0 0 0-7.818 11.701C.933 26.641 0 31.331 0 36.068h18.034c0-2.368.466-4.713 1.373-6.901s2.235-4.176 3.909-5.851 3.663-3.003 5.851-3.909 4.533-1.373 6.901-1.373V0z"/><circle cx="36.068" cy="36.068" r="11.271"/></g><path d="M47.339 36.068a11.27 11.27 0 0 0-3.301-7.97 11.27 11.27 0 0 0-7.97-3.301 11.27 11.27 0 0 0-7.97 3.301 11.27 11.27 0 0 0-3.301 7.97h11.271 11.271z" fill="#fff"/></svg>