<svg xmlns="http://www.w3.org/2000/svg" width="33" height="32" fill="none" xmlns:v="https://vecta.io/nano"><path d="M31.497.931c-.8-.821-1.985-1.127-3.089-.805L2.653 7.615C1.488 7.939.662 8.868.439 10.049c-.227 1.202.567 2.727 1.604 3.365l8.053 4.949c.826.507 1.892.38 2.575-.309l9.221-9.279c.464-.483 1.232-.483 1.697 0a1.22 1.22 0 0 1 0 1.707l-9.237 9.28a2.12 2.12 0 0 0-.309 2.59l4.92 8.134c.576.966 1.569 1.514 2.657 1.514l.4-.016c1.249-.161 2.241-1.015 2.609-2.223L32.265 4.04c.336-1.095.032-2.287-.768-3.108" fill="#00f6ff"/></svg>