<svg xmlns="http://www.w3.org/2000/svg" width="28" height="32" fill="none" xmlns:v="https://vecta.io/nano"><path fill-rule="evenodd" d="M13.565 31.862a1.22 1.22 0 0 0 .574.138 1.25 1.25 0 0 0 .573-.144l5.709-3.052c1.619-.863 2.886-1.828 3.875-2.951 2.15-2.448 3.325-5.571 3.304-8.792l-.068-10.625c-.006-1.224-.81-2.316-1.999-2.713L14.913.159a3.02 3.02 0 0 0-1.968.011l-10.58 3.69C1.183 4.273.394 5.373.4 6.598l.068 10.617c.021 3.226 1.235 6.336 3.421 8.758.999 1.108 2.278 2.058 3.914 2.907l5.762 2.981zm-1.511-12.488c.238.229.548.342.857.339s.617-.118.852-.35l6.239-6.15c.469-.463.464-1.207-.01-1.663a1.23 1.23 0 0 0-1.709.01l-5.39 5.313-2.207-2.121a1.23 1.23 0 0 0-1.709.011c-.469.463-.464 1.207.011 1.663l3.065 2.95z" fill="#00f6ff"/></svg>