<svg xmlns="http://www.w3.org/2000/svg" width="33" height="32" fill="none" xmlns:v="https://vecta.io/nano"><path d="M25.47 19.712a1.76 1.76 0 0 0-.51 1.552l1.422 7.872a1.73 1.73 0 0 1-.72 1.728 1.76 1.76 0 0 1-1.872.128l-7.086-3.696a1.81 1.81 0 0 0-.8-.21h-.434a1.3 1.3 0 0 0-.432.144L7.95 30.944a1.87 1.87 0 0 1-1.136.176 1.78 1.78 0 0 1-1.424-2.034l1.424-7.872a1.79 1.79 0 0 0-.51-1.566l-5.778-5.6c-.483-.469-.651-1.173-.43-1.808.214-.634.762-1.096 1.422-1.2L9.47 9.887a1.78 1.78 0 0 0 1.408-.974l3.504-7.184c.083-.16.19-.307.32-.432l.144-.112c.075-.083.162-.152.258-.208l.174-.064L15.55.8h.674a1.79 1.79 0 0 1 1.408.96l3.55 7.152a1.78 1.78 0 0 0 1.328.974l7.952 1.154c.672.096 1.234.56 1.456 1.2a1.74 1.74 0 0 1-.464 1.808l-5.984 5.664z" fill="#00f6ff"/></svg>