<svg xmlns="http://www.w3.org/2000/svg" width="23" height="19" fill="none" xmlns:v="https://vecta.io/nano"><path d="M23 2.249c-.855.381-1.767.634-2.717.757.977-.593 1.724-1.526 2.074-2.65a9.33 9.33 0 0 1-2.99 1.16A4.69 4.69 0 0 0 15.923 0c-2.61 0-4.712 2.154-4.712 4.795 0 .38.032.745.109 1.093C7.4 5.694 3.932 3.784 1.601.874a4.89 4.89 0 0 0-.645 2.423c0 1.66.841 3.132 2.094 3.984-.758-.015-1.501-.238-2.13-.59v.053c0 2.33 1.634 4.265 3.778 4.711-.384.107-.802.158-1.236.158-.302 0-.607-.018-.893-.082.611 1.899 2.345 3.294 4.406 3.34-1.604 1.276-3.641 2.045-5.846 2.045-.387 0-.758-.018-1.128-.066C2.089 18.218 4.564 19 7.234 19c8.677 0 13.421-7.308 13.421-13.642a12.39 12.39 0 0 0-.017-.62c.936-.675 1.722-1.519 2.363-2.489z" fill="#fff"/></svg>